<?xml version="1.0" standalone="no"?>
<!DOCTYPE svg PUBLIC "-//W3C//DTD SVG 20010904//EN"
 "http://www.w3.org/TR/2001/REC-SVG-20010904/DTD/svg10.dtd">
<svg version="1.0" xmlns="http://www.w3.org/2000/svg"
 width="256.000000pt" height="256.000000pt" viewBox="0 0 256.000000 256.000000"
 preserveAspectRatio="xMidYMid meet">
<metadata>
Created by potrace 1.14, written by Peter Selinger 2001-2017
</metadata>
<g transform="translate(0.000000,256.000000) scale(0.100000,-0.100000)"
fill="#000000" stroke="none">
<path d="M0 1280 l0 -1280 1280 0 1280 0 0 1280 0 1280 -1280 0 -1280 0 0
-1280z m2315 1063 c75 -38 118 -108 118 -193 0 -122 -91 -213 -213 -213 -122
0 -213 91 -213 213 0 160 165 264 308 193z m-823 -96 c118 -31 242 -94 313
-158 92 -85 159 -211 180 -336 l7 -43 -121 0 c-119 0 -121 0 -121 23 0 42 -58
147 -109 196 -105 99 -222 135 -451 135 -170 0 -249 -14 -347 -60 -173 -82
-237 -292 -127 -414 76 -84 157 -115 547 -214 313 -80 375 -100 507 -166 62
-31 103 -61 151 -110 82 -83 109 -146 116 -270 11 -185 -63 -346 -203 -446
-133 -95 -292 -141 -524 -151 -402 -17 -681 86 -826 305 -41 61 -88 188 -99
265 l-6 47 119 0 119 0 7 -48 c21 -160 172 -286 397 -332 120 -25 345 -27 457
-4 216 44 332 159 332 328 0 74 -24 130 -73 173 -90 79 -173 110 -547 206
-408 105 -526 155 -639 268 -160 160 -143 467 36 646 138 138 335 196 643 189
136 -3 182 -9 262 -29z"/>
</g>
</svg>
