<svg width="72" height="21" fill="none" xmlns="http://www.w3.org/2000/svg"><g clip-path="url(#clip0_468_16215)"><path d="M6.306 20.761c-1.347 0-2.489-.218-3.426-.655-.917-.436-1.62-1.006-2.108-1.708a4.689 4.689 0 01-.82-2.334h2.284c.059.474.224.94.498 1.395.293.436.732.797 1.317 1.082.586.265 1.347.398 2.284.398.293 0 .654-.028 1.084-.085a5.363 5.363 0 001.23-.313 2.54 2.54 0 001.024-.683c.273-.304.41-.693.41-1.168 0-.588-.234-1.043-.703-1.366-.468-.323-1.073-.57-1.815-.74-.742-.19-1.532-.37-2.372-.541-.82-.17-1.6-.39-2.342-.655-.742-.284-1.347-.674-1.815-1.167-.469-.512-.703-1.205-.703-2.078 0-1.29.478-2.287 1.435-2.989.976-.721 2.41-1.082 4.304-1.082 1.288 0 2.332.2 3.133.598.82.38 1.434.873 1.844 1.48a4.14 4.14 0 01.761 1.964H9.585c-.078-.607-.39-1.129-.937-1.565-.527-.437-1.405-.655-2.635-.655-2.323 0-3.484.683-3.484 2.05 0 .57.234 1.006.703 1.31.468.303 1.073.55 1.815.74.742.17 1.522.34 2.342.512.84.152 1.63.37 2.372.655.742.284 1.347.692 1.815 1.223.469.513.703 1.215.703 2.107 0 1.385-.546 2.448-1.64 3.188-1.073.722-2.518 1.082-4.333 1.082zm13.832 0c-1.483 0-2.771-.323-3.865-.968a6.728 6.728 0 01-2.518-2.676c-.585-1.12-.878-2.353-.878-3.7 0-1.367.293-2.6.878-3.701a6.535 6.535 0 012.518-2.647c1.094-.665 2.382-.997 3.865-.997 1.503 0 2.792.332 3.865.997a6.536 6.536 0 012.518 2.647c.586 1.1.879 2.334.879 3.7 0 1.348-.293 2.582-.878 3.701a6.73 6.73 0 01-2.519 2.676c-1.073.645-2.361.968-3.865.968zm0-1.936c1.093 0 2.011-.246 2.753-.74a4.732 4.732 0 001.727-1.964 6.31 6.31 0 00.586-2.704c0-.987-.195-1.889-.586-2.705a4.732 4.732 0 00-1.727-1.964c-.742-.493-1.66-.74-2.753-.74-1.073 0-1.99.247-2.752.74a4.732 4.732 0 00-1.727 1.964c-.39.816-.586 1.718-.586 2.705 0 .967.195 1.869.586 2.704.39.816.966 1.47 1.727 1.964.761.494 1.679.74 2.752.74zm8.856 1.708V.607h2.196v19.926h-2.196zm4.687 0V.607h2.196v19.926h-2.196zm10.866.228c-1.425 0-2.675-.323-3.748-.968a6.864 6.864 0 01-2.46-2.676c-.585-1.12-.878-2.353-.878-3.7 0-1.367.293-2.6.878-3.701a6.659 6.659 0 012.46-2.647c1.073-.665 2.322-.997 3.748-.997 1.21 0 2.244.228 3.103.683a5.863 5.863 0 012.138 1.85V6.3h2.196v14.233h-2.196v-2.277a5.973 5.973 0 01-2.138 1.822c-.859.455-1.893.683-3.103.683zm.292-1.936c1.093 0 2.01-.246 2.753-.74a4.732 4.732 0 001.727-1.964 6.31 6.31 0 00.586-2.704c0-.987-.196-1.889-.586-2.705a4.732 4.732 0 00-1.727-1.964c-.742-.493-1.66-.74-2.753-.74-1.073 0-2 .247-2.781.74a4.873 4.873 0 00-1.786 1.964c-.41.816-.615 1.718-.615 2.705 0 .967.205 1.869.615 2.704a4.873 4.873 0 001.786 1.964c.78.494 1.708.74 2.781.74zm14.954 1.936c-1.346 0-2.488-.218-3.425-.655-.918-.436-1.62-1.006-2.108-1.708a4.69 4.69 0 01-.82-2.334h2.284c.058.474.224.94.497 1.395.293.436.732.797 1.318 1.082.585.265 1.347.398 2.284.398a8.46 8.46 0 001.083-.085c.43-.057.84-.162 1.23-.313a2.54 2.54 0 001.025-.683c.273-.304.41-.693.41-1.168 0-.588-.235-1.043-.703-1.366-.469-.323-1.074-.57-1.816-.74-.741-.19-1.532-.37-2.371-.541-.82-.17-1.6-.39-2.343-.655-.741-.284-1.346-.674-1.815-1.167-.469-.512-.703-1.205-.703-2.078 0-1.29.478-2.287 1.435-2.989.976-.721 2.41-1.082 4.304-1.082 1.288 0 2.333.2 3.133.598.82.38 1.435.873 1.845 1.48a4.15 4.15 0 01.761 1.964h-2.225c-.078-.607-.39-1.129-.937-1.565-.527-.437-1.406-.655-2.635-.655-2.323 0-3.485.683-3.485 2.05 0 .57.235 1.006.703 1.31.468.303 1.074.55 1.815.74.742.17 1.523.34 2.343.512.84.152 1.63.37 2.371.655.742.284 1.347.692 1.816 1.223.468.513.703 1.215.703 2.107 0 1.385-.547 2.448-1.64 3.188-1.074.722-2.518 1.082-4.334 1.082z" fill="#111"/><ellipse cx="68.88" cy="3.033" rx="3.12" ry="3.033" fill="#FB7B54"/></g><defs><clipPath id="clip0_468_16215"><path fill="#fff" d="M0 0h72v21H0z"/></clipPath></defs></svg>